<svg width="155" height="48" viewBox="0 0 155 48" fill="none" xmlns="http://www.w3.org/2000/svg">
<path fill-rule="evenodd" clip-rule="evenodd" d="M8.31634 22.2069C6.75109 22.2069 5.33212 21.8705 4.05943 21.1976C2.80137 20.51 1.80663 19.5665 1.0752 18.3669C0.3584 17.1528 0 15.785 0 14.2636C0 12.7423 0.3584 11.3818 1.0752 10.1823C1.80663 8.96808 2.80137 8.02454 4.05943 7.35163C5.33212 6.66408 6.7584 6.32031 8.33829 6.32031C9.66949 6.32031 10.869 6.55437 11.9369 7.02248C13.0194 7.4906 13.9264 8.16351 14.6578 9.04123L12.3758 11.1477C11.3371 9.9482 10.0498 9.34843 8.51383 9.34843C7.56297 9.34843 6.71452 9.56054 5.96846 9.98477C5.2224 10.3944 4.63726 10.9722 4.21303 11.7183C3.80343 12.4643 3.59863 13.3128 3.59863 14.2636C3.59863 15.2145 3.80343 16.0629 4.21303 16.809C4.63726 17.5551 5.2224 18.1402 5.96846 18.5644C6.71452 18.974 7.56297 19.1788 8.51383 19.1788C10.0498 19.1788 11.3371 18.5717 12.3758 17.3576L14.6578 19.4641C13.9264 20.3564 13.0194 21.0367 11.9369 21.5048C10.8544 21.9729 9.64754 22.2069 8.31634 22.2069ZM29.8291 19.0911V21.9436H17.9361V6.58363H29.5438V9.4362H21.4689V12.7715H28.6003V15.5363H21.4689V19.0911H29.8291ZM47.6225 21.9436V6.58363H44.1117V15.9093L36.4756 6.58363H33.5352V21.9436H37.0461V12.6179L44.7041 21.9436H47.6225ZM55.3161 9.48008H50.4009V6.58363H63.786V9.48008H58.8708V17.3721H55.3161V9.48008ZM70.1311 6.58363H66.5763V21.9436H70.1311V6.58363ZM82.0049 22.2069C80.4397 22.2069 79.0207 21.8705 77.748 21.1976C76.49 20.51 75.4952 19.5665 74.7638 18.3669C74.047 17.1528 73.6886 15.785 73.6886 14.2636C73.6886 12.7423 74.047 11.3818 74.7638 10.1823C75.4952 8.96808 76.49 8.02454 77.748 7.35163C79.0207 6.66408 80.447 6.32031 82.0269 6.32031C83.3581 6.32031 84.5576 6.55437 85.6255 7.02248C86.708 7.4906 87.615 8.16351 88.3464 9.04123L86.0643 11.1477C85.0257 9.9482 83.7384 9.34843 82.2024 9.34843C81.2516 9.34843 80.4031 9.56054 79.657 9.98477C78.911 10.3944 78.3258 10.9722 77.9016 11.7183C77.492 12.4643 77.2872 13.3128 77.2872 14.2636C77.2872 15.2145 77.492 16.0629 77.9016 16.809C78.3258 17.5551 78.911 18.1402 79.657 18.5644C80.4031 18.974 81.2516 19.1788 82.2024 19.1788C83.7384 19.1788 85.0257 18.5717 86.0643 17.3576L88.3464 19.4641C87.615 20.3564 86.708 21.0367 85.6255 21.5048C84.543 21.9729 83.3361 22.2069 82.0049 22.2069ZM135.175 21.9436L132.213 17.6648H132.038H128.944V21.9436H125.389V6.58362H132.038C133.398 6.58362 134.576 6.81036 135.57 7.26385C136.58 7.71733 137.355 8.36099 137.896 9.19482C138.438 10.0286 138.708 11.0161 138.708 12.1571C138.708 13.2981 138.43 14.2856 137.874 15.1194C137.333 15.9386 136.558 16.5676 135.548 17.0065L138.994 21.9436H135.175ZM135.11 12.1571C135.11 11.294 134.832 10.6357 134.276 10.1822C133.72 9.71413 132.908 9.48008 131.84 9.48008H128.944V14.8341H131.84C132.908 14.8341 133.72 14.6001 134.276 14.132C134.832 13.6638 135.11 13.0056 135.11 12.1571ZM154.295 19.091V21.9436H142.402V6.58362H154.01V9.43619H145.935V12.7715H153.067V15.5363H145.935V19.091H154.295ZM58.9715 18.2864H55.3144V21.9436H58.9715V18.2864Z" fill="#191919"/>
<path d="M119.645 15.5918H115.564C115.564 9.23495 110.41 4.08163 104.054 4.08163V0C112.665 0 119.645 6.98072 119.645 15.5918ZM104.054 4.08163V8.16327C99.7705 8.16327 96.2984 11.6354 96.2984 15.9184H92.2168C92.2168 9.38113 97.5163 4.08163 104.054 4.08163ZM103.727 27.4286V23.3469C108.01 23.3469 111.482 19.8749 111.482 15.5918H115.564C115.564 22.1291 110.264 27.4286 103.727 27.4286ZM96.2984 15.9184H100.38C100.38 17.9469 101.698 19.2645 103.727 19.2645V23.3461C99.4439 23.3461 96.2984 20.2013 96.2984 15.9184Z" fill="#1F50FE"/>
<path d="M39.3372 43.0014C38.6732 43.0014 38.0612 42.8974 37.5012 42.6894C36.9492 42.4734 36.4652 42.1694 36.0492 41.7774C35.6412 41.3854 35.3212 40.9254 35.0892 40.3974C34.8652 39.8694 34.7532 39.2894 34.7532 38.6574C34.7532 38.0254 34.8652 37.4454 35.0892 36.9174C35.3212 36.3894 35.6452 35.9294 36.0612 35.5374C36.4772 35.1454 36.9652 34.8454 37.5252 34.6374C38.0852 34.4214 38.7012 34.3134 39.3732 34.3134C40.1172 34.3134 40.7852 34.4374 41.3772 34.6854C41.9772 34.9334 42.4812 35.2934 42.8892 35.7654L41.6412 36.9174C41.3372 36.5974 41.0052 36.3614 40.6452 36.2094C40.2852 36.0494 39.8932 35.9694 39.4692 35.9694C39.0612 35.9694 38.6892 36.0334 38.3532 36.1614C38.0172 36.2894 37.7252 36.4734 37.4772 36.7134C37.2372 36.9534 37.0492 37.2374 36.9132 37.5654C36.7852 37.8934 36.7212 38.2574 36.7212 38.6574C36.7212 39.0494 36.7852 39.4094 36.9132 39.7374C37.0492 40.0654 37.2372 40.3534 37.4772 40.6014C37.7252 40.8414 38.0132 41.0254 38.3412 41.1534C38.6772 41.2814 39.0452 41.3454 39.4452 41.3454C39.8292 41.3454 40.2012 41.2854 40.5612 41.1654C40.9292 41.0374 41.2852 40.8254 41.6292 40.5294L42.7332 41.9334C42.2772 42.2774 41.7452 42.5414 41.1372 42.7254C40.5372 42.9094 39.9372 43.0014 39.3372 43.0014ZM40.9572 41.6814V38.5254H42.7332V41.9334L40.9572 41.6814ZM51.739 42.8574V34.4574H55.375C56.127 34.4574 56.775 34.5814 57.319 34.8294C57.863 35.0694 58.283 35.4174 58.579 35.8734C58.875 36.3294 59.023 36.8734 59.023 37.5054C59.023 38.1294 58.875 38.6694 58.579 39.1254C58.283 39.5734 57.863 39.9174 57.319 40.1574C56.775 40.3974 56.127 40.5174 55.375 40.5174H52.819L53.683 39.6654V42.8574H51.739ZM57.079 42.8574L54.979 39.8094H57.055L59.179 42.8574H57.079ZM53.683 39.8814L52.819 38.9694H55.267C55.867 38.9694 56.315 38.8414 56.611 38.5854C56.907 38.3214 57.055 37.9614 57.055 37.5054C57.055 37.0414 56.907 36.6814 56.611 36.4254C56.315 36.1694 55.867 36.0414 55.267 36.0414H52.819L53.683 35.1174V39.8814ZM71.8432 43.0014C71.1792 43.0014 70.5632 42.8934 69.9952 42.6774C69.4352 42.4614 68.9472 42.1574 68.5312 41.7654C68.1232 41.3734 67.8032 40.9134 67.5712 40.3854C67.3472 39.8574 67.2352 39.2814 67.2352 38.6574C67.2352 38.0334 67.3472 37.4574 67.5712 36.9294C67.8032 36.4014 68.1272 35.9414 68.5432 35.5494C68.9592 35.1574 69.4472 34.8534 70.0072 34.6374C70.5672 34.4214 71.1752 34.3134 71.8312 34.3134C72.4952 34.3134 73.1032 34.4214 73.6552 34.6374C74.2152 34.8534 74.6992 35.1574 75.1072 35.5494C75.5232 35.9414 75.8472 36.4014 76.0792 36.9294C76.3112 37.4494 76.4272 38.0254 76.4272 38.6574C76.4272 39.2814 76.3112 39.8614 76.0792 40.3974C75.8472 40.9254 75.5232 41.3854 75.1072 41.7774C74.6992 42.1614 74.2152 42.4614 73.6552 42.6774C73.1032 42.8934 72.4992 43.0014 71.8432 43.0014ZM71.8312 41.3454C72.2072 41.3454 72.5512 41.2814 72.8632 41.1534C73.1832 41.0254 73.4632 40.8414 73.7032 40.6014C73.9432 40.3614 74.1272 40.0774 74.2552 39.7494C74.3912 39.4214 74.4592 39.0574 74.4592 38.6574C74.4592 38.2574 74.3912 37.8934 74.2552 37.5654C74.1272 37.2374 73.9432 36.9534 73.7032 36.7134C73.4712 36.4734 73.1952 36.2894 72.8752 36.1614C72.5552 36.0334 72.2072 35.9694 71.8312 35.9694C71.4552 35.9694 71.1072 36.0334 70.7872 36.1614C70.4752 36.2894 70.1992 36.4734 69.9592 36.7134C69.7192 36.9534 69.5312 37.2374 69.3952 37.5654C69.2672 37.8934 69.2032 38.2574 69.2032 38.6574C69.2032 39.0494 69.2672 39.4134 69.3952 39.7494C69.5312 40.0774 69.7152 40.3614 69.9472 40.6014C70.1872 40.8414 70.4672 41.0254 70.7872 41.1534C71.1072 41.2814 71.4552 41.3454 71.8312 41.3454ZM88.8202 43.0014C87.6282 43.0014 86.6962 42.6694 86.0242 42.0054C85.3522 41.3414 85.0162 40.3934 85.0162 39.1614V34.4574H86.9602V39.0894C86.9602 39.8894 87.1242 40.4654 87.4522 40.8174C87.7802 41.1694 88.2402 41.3454 88.8322 41.3454C89.4242 41.3454 89.8842 41.1694 90.2122 40.8174C90.5402 40.4654 90.7042 39.8894 90.7042 39.0894V34.4574H92.6242V39.1614C92.6242 40.3934 92.2882 41.3414 91.6162 42.0054C90.9442 42.6694 90.0122 43.0014 88.8202 43.0014ZM101.745 42.8574V34.4574H105.381C106.133 34.4574 106.781 34.5814 107.325 34.8294C107.869 35.0694 108.289 35.4174 108.585 35.8734C108.881 36.3294 109.029 36.8734 109.029 37.5054C109.029 38.1294 108.881 38.6694 108.585 39.1254C108.289 39.5814 107.869 39.9334 107.325 40.1814C106.781 40.4214 106.133 40.5414 105.381 40.5414H102.825L103.689 39.6654V42.8574H101.745ZM103.689 39.8814L102.825 38.9574H105.273C105.873 38.9574 106.321 38.8294 106.617 38.5734C106.913 38.3174 107.061 37.9614 107.061 37.5054C107.061 37.0414 106.913 36.6814 106.617 36.4254C106.321 36.1694 105.873 36.0414 105.273 36.0414H102.825L103.689 35.1174V39.8814Z" fill="#1F50FE"/>
</svg>
